<svg xmlns="http://www.w3.org/2000/svg" xmlns:xlink="http://www.w3.org/1999/xlink" aria-hidden="true" role="img" class="iconify iconify--logos" width="31.88" height="32" preserveAspectRatio="xMidYMid meet" viewBox="0 0 256 257"><defs><linearGradient id="IconifyId1813288fe1fbc6666676" x1="-.828%" x2="57.636%" y1="7.652%" y2="78.411%"><stop offset="0%" stop-color="#61DAFB"></stop><stop offset="100%" stop-color="#0096D6"></stop></linearGradient><linearGradient id="IconifyId1813288fe1fbc6666677" x1="43.376%" x2="50.316%" y1="2.242%" y2="89.03%"><stop offset="0%" stop-color="#61DAFB"></stop><stop offset="100%" stop-color="#0096D6"></stop></linearGradient></defs><path fill="url(#IconifyId1813288fe1fbc6666676)" d="M210.483 71.268a128 128 0 0 0-183.638 166.506c35.327-20.763 66.226-51.49 87.719-87.719a128 128 0 0 0 95.919-98.787"></path><path fill="url(#IconifyId1813288fe1fbc6666677)" d="M144.027 16.248a128 128 0 0 0-96.324 41.934A128 128 0 0 0 7.95 184.414a128 128 0 0 0 166.506-183.638"></path><path fill="#00D8FF" d="M144.027 16.248v121.504a128 128 0 0 0 95.919 98.787a128 128 0 0 0 43.491-8.944V82.676"></path></svg>